<svg id="visual" viewBox="0 0 960 150" width="960" height="150" xmlns="http://www.w3.org/2000/svg" xmlns:xlink="http://www.w3.org/1999/xlink" version="1.1"><rect x="0" y="0" width="960" height="150" fill="#262626"></rect><path d="M0 29L20 31.7C40 34.3 80 39.7 120 44.2C160 48.7 200 52.3 240 48.7C280 45 320 34 360 33.2C400 32.3 440 41.7 480 44.2C520 46.7 560 42.3 600 41.3C640 40.3 680 42.7 720 45.3C760 48 800 51 840 48.8C880 46.7 920 39.3 940 35.7L960 32L960 151L940 151C920 151 880 151 840 151C800 151 760 151 720 151C680 151 640 151 600 151C560 151 520 151 480 151C440 151 400 151 360 151C320 151 280 151 240 151C200 151 160 151 120 151C80 151 40 151 20 151L0 151Z" fill="#7ea3cc"></path><path d="M0 65L20 66.5C40 68 80 71 120 69.7C160 68.3 200 62.7 240 59C280 55.3 320 53.7 360 54.5C400 55.3 440 58.7 480 57.3C520 56 560 50 600 49.5C640 49 680 54 720 55C760 56 800 53 840 50.2C880 47.3 920 44.7 940 43.3L960 42L960 151L940 151C920 151 880 151 840 151C800 151 760 151 720 151C680 151 640 151 600 151C560 151 520 151 480 151C440 151 400 151 360 151C320 151 280 151 240 151C200 151 160 151 120 151C80 151 40 151 20 151L0 151Z" fill="#6891c0"></path><path d="M0 73L20 74.5C40 76 80 79 120 77.8C160 76.7 200 71.3 240 71.2C280 71 320 76 360 76.8C400 77.7 440 74.3 480 72.5C520 70.7 560 70.3 600 74.7C640 79 680 88 720 89.2C760 90.3 800 83.7 840 82.2C880 80.7 920 84.3 940 86.2L960 88L960 151L940 151C920 151 880 151 840 151C800 151 760 151 720 151C680 151 640 151 600 151C560 151 520 151 480 151C440 151 400 151 360 151C320 151 280 151 240 151C200 151 160 151 120 151C80 151 40 151 20 151L0 151Z" fill="#537fb3"></path><path d="M0 95L20 94.5C40 94 80 93 120 95.5C160 98 200 104 240 104.7C280 105.3 320 100.7 360 100.5C400 100.3 440 104.7 480 108C520 111.3 560 113.7 600 114.8C640 116 680 116 720 113.3C760 110.7 800 105.3 840 105.2C880 105 920 110 940 112.5L960 115L960 151L940 151C920 151 880 151 840 151C800 151 760 151 720 151C680 151 640 151 600 151C560 151 520 151 480 151C440 151 400 151 360 151C320 151 280 151 240 151C200 151 160 151 120 151C80 151 40 151 20 151L0 151Z" fill="#3d6da6"></path><path d="M0 131L20 129.5C40 128 80 125 120 125C160 125 200 128 240 126.5C280 125 320 119 360 117.5C400 116 440 119 480 122.2C520 125.3 560 128.7 600 128C640 127.3 680 122.7 720 120.8C760 119 800 120 840 122.3C880 124.7 920 128.3 940 130.2L960 132L960 151L940 151C920 151 880 151 840 151C800 151 760 151 720 151C680 151 640 151 600 151C560 151 520 151 480 151C440 151 400 151 360 151C320 151 280 151 240 151C200 151 160 151 120 151C80 151 40 151 20 151L0 151Z" fill="#255c99"></path></svg>