<svg id="visual" viewBox="0 0 960 300" width="960" height="300" xmlns="http://www.w3.org/2000/svg" xmlns:xlink="http://www.w3.org/1999/xlink" version="1.1"><rect x="0" y="0" width="960" height="300" fill="#1D1E2C"></rect><path d="M0 28L8.8 29.7C17.7 31.3 35.3 34.7 53.2 33.5C71 32.3 89 26.7 106.8 24.2C124.7 21.7 142.3 22.3 160 25.5C177.7 28.7 195.3 34.3 213.2 35.7C231 37 249 34 266.8 32C284.7 30 302.3 29 320 28.2C337.7 27.3 355.3 26.7 373.2 28.5C391 30.3 409 34.7 426.8 36.2C444.7 37.7 462.3 36.3 480 33.5C497.7 30.7 515.3 26.3 533.2 27C551 27.7 569 33.3 586.8 36.8C604.7 40.3 622.3 41.7 640 41.8C657.7 42 675.3 41 693.2 39.3C711 37.7 729 35.3 746.8 33C764.7 30.7 782.3 28.3 800 26.5C817.7 24.7 835.3 23.3 853.2 24.2C871 25 889 28 906.8 31.2C924.7 34.3 942.3 37.7 951.2 39.3L960 41L960 0L951.2 0C942.3 0 924.7 0 906.8 0C889 0 871 0 853.2 0C835.3 0 817.7 0 800 0C782.3 0 764.7 0 746.8 0C729 0 711 0 693.2 0C675.3 0 657.7 0 640 0C622.3 0 604.7 0 586.8 0C569 0 551 0 533.2 0C515.3 0 497.7 0 480 0C462.3 0 444.7 0 426.8 0C409 0 391 0 373.2 0C355.3 0 337.7 0 320 0C302.3 0 284.7 0 266.8 0C249 0 231 0 213.2 0C195.3 0 177.7 0 160 0C142.3 0 124.7 0 106.8 0C89 0 71 0 53.2 0C35.3 0 17.7 0 8.8 0L0 0Z" fill="#c1dff0"></path><path d="M0 23L8.8 23.5C17.7 24 35.3 25 53.2 24.8C71 24.7 89 23.3 106.8 22.2C124.7 21 142.3 20 160 21.5C177.7 23 195.3 27 213.2 27.7C231 28.3 249 25.7 266.8 25.5C284.7 25.3 302.3 27.7 320 27.7C337.7 27.7 355.3 25.3 373.2 25C391 24.7 409 26.3 426.8 26C444.7 25.7 462.3 23.3 480 22.8C497.7 22.3 515.3 23.7 533.2 25.3C551 27 569 29 586.8 29.5C604.7 30 622.3 29 640 28.2C657.7 27.3 675.3 26.7 693.2 25.8C711 25 729 24 746.8 22.8C764.7 21.7 782.3 20.3 800 21.7C817.7 23 835.3 27 853.2 27C871 27 889 23 906.8 22.3C924.7 21.7 942.3 24.3 951.2 25.7L960 27L960 0L951.2 0C942.3 0 924.7 0 906.8 0C889 0 871 0 853.2 0C835.3 0 817.7 0 800 0C782.3 0 764.7 0 746.8 0C729 0 711 0 693.2 0C675.3 0 657.7 0 640 0C622.3 0 604.7 0 586.8 0C569 0 551 0 533.2 0C515.3 0 497.7 0 480 0C462.3 0 444.7 0 426.8 0C409 0 391 0 373.2 0C355.3 0 337.7 0 320 0C302.3 0 284.7 0 266.8 0C249 0 231 0 213.2 0C195.3 0 177.7 0 160 0C142.3 0 124.7 0 106.8 0C89 0 71 0 53.2 0C35.3 0 17.7 0 8.8 0L0 0Z" fill="#7fa3bf"></path><path d="M0 9L8.8 10.8C17.7 12.7 35.3 16.3 53.2 16.8C71 17.3 89 14.7 106.8 13.7C124.7 12.7 142.3 13.3 160 13.3C177.7 13.3 195.3 12.7 213.2 13.2C231 13.7 249 15.3 266.8 15C284.7 14.7 302.3 12.3 320 12.5C337.7 12.7 355.3 15.3 373.2 16.7C391 18 409 18 426.8 16.8C444.7 15.7 462.3 13.3 480 13.2C497.7 13 515.3 15 533.2 16.3C551 17.7 569 18.3 586.8 17.5C604.7 16.7 622.3 14.3 640 13.5C657.7 12.7 675.3 13.3 693.2 12.8C711 12.3 729 10.7 746.8 11.3C764.7 12 782.3 15 800 15.2C817.7 15.3 835.3 12.7 853.2 12.3C871 12 889 14 906.8 14C924.7 14 942.3 12 951.2 11L960 10L960 0L951.2 0C942.3 0 924.7 0 906.8 0C889 0 871 0 853.2 0C835.3 0 817.7 0 800 0C782.3 0 764.7 0 746.8 0C729 0 711 0 693.2 0C675.3 0 657.7 0 640 0C622.3 0 604.7 0 586.8 0C569 0 551 0 533.2 0C515.3 0 497.7 0 480 0C462.3 0 444.7 0 426.8 0C409 0 391 0 373.2 0C355.3 0 337.7 0 320 0C302.3 0 284.7 0 266.8 0C249 0 231 0 213.2 0C195.3 0 177.7 0 160 0C142.3 0 124.7 0 106.8 0C89 0 71 0 53.2 0C35.3 0 17.7 0 8.8 0L0 0Z" fill="#456990"></path></svg>