<svg id="Layer_1" data-name="Layer 1" xmlns="http://www.w3.org/2000/svg" viewBox="0 0 256 256"><defs><style>.cls-1,.cls-2{stroke:#000;stroke-miterlimit:10;}.cls-2{fill:#fff;}.cls-3{fill:none;}</style></defs><title>logo</title><path class="cls-1" d="M42,96.94S9,98.45,17.9,68.31s29-24.56,29-24.56,26.87.3,21.81,24.71S42,96.94,42,96.94Z"/><path class="cls-1" d="M179.06,58.85S194.5,33.5,225.5,50.5s-7.84,44.75-7.84,44.75S179.62,86.2,179.06,58.85Z"/><path class="cls-2" d="M126.5,50.5c-14-1-20-.6-41,7-17,6.14-41,21-46,37s0,42,2,51c2.31,10.38,7.68,43.17,35,50,28,7,59.24,7,86,5,27-2,34-6,45-25,18-31,16.91-55.7,15-70-2-15,4.26-26.2-32-43C149.5,43.5,126.5,50.5,126.5,50.5Z"/><path class="cls-1" d="M89.44,129.67s30.92-24.74,22.27-43.29c-7.83-16.77-26.77,10.93-30.34,16.4-.43.66-.86,1.3-1.32,1.93-4,5.58-22.26,32.09-9.16,29.9,14.84-2.47,18.55-4.94,18.55-4.94"/><path class="cls-1" d="M141.28,82.48c-6.41,2.38-3.75,9-2.8,13.47,2.26,10.7,7.66,27.07,20.18,35.42,19.56,13,17.39-8.69,17.39-10.86s-9.78-23.91-12-25-6.58-16.69-15.22-15.22A50.46,50.46,0,0,0,141.28,82.48Z"/><path class="cls-1" d="M104.7,147.4a5.12,5.12,0,0,0,.06,8.44A38.09,38.09,0,0,0,127.51,162a47.37,47.37,0,0,0,5-.45c21-3,20-8.59,20-10,0-5-8-6-12-7s-27,0-30,0C109.17,144.5,106.86,145.87,104.7,147.4Z"/><path class="cls-1" d="M123.5,161.5s3,7-6,5-17-1-28-5-4,5-4,5,22,10,46,9,32-7,32-7,16-7,14-9,0-5-9-3-13,14-33,9c-5.22-1.31-5-4-5-4Z"/><path class="cls-2" d="M102.5,96.5c-1-1-3.44-1.09-3.85-1.15C95.7,95,86,94.52,83.5,105.5c-2.37,10.26,9,11.18,13.86,11.11a6.14,6.14,0,0,0,3.84-1.42c3.31-2.76,9.91-9.31,5.3-14.69C102.3,95.6,103,97,102.5,96.5Z"/><path class="cls-2" d="M160.78,95.93c-.48-.72-2.6-1.9-3.28-2.43-2.06-1.59-6.33-3.14-14,3-5,4-3.49,7.77-.72,10.53a15,15,0,0,0,14.6,3.77c2.73-.77,5.12-2.3,5.12-5.3C162.5,99.38,162.5,98.5,160.78,95.93Z"/><circle class="cls-1" cx="100" cy="106" r="4.5"/><circle class="cls-1" cx="148" cy="103" r="4.5"/><rect class="cls-3" width="256" height="256"/></svg>